<svg xmlns="http://www.w3.org/2000/svg" viewBox="0 0 400 300" fill="none">
  <defs>
    <radialGradient id="bg1" cx="50%" cy="45%" r="60%">
      <stop offset="0%" stop-color="#b8906a"/>
      <stop offset="100%" stop-color="#7a5c38"/>
    </radialGradient>
    <radialGradient id="void1" cx="50%" cy="50%" r="50%">
      <stop offset="0%" stop-color="#e0d5c5"/>
      <stop offset="80%" stop-color="#d0c4b0"/>
      <stop offset="100%" stop-color="#c8b89a"/>
    </radialGradient>
  </defs>
  <rect width="400" height="300" fill="url(#bg1)"/>
  <!-- Painterly strokes – background -->
  <ellipse cx="80" cy="80" rx="90" ry="70" fill="#9e7050" opacity="0.5"/>
  <ellipse cx="320" cy="220" rx="100" ry="80" fill="#6a4828" opacity="0.4"/>
  <ellipse cx="200" cy="150" rx="120" ry="90" fill="#c09060" opacity="0.3"/>
  <ellipse cx="340" cy="70" rx="70" ry="60" fill="#a07848" opacity="0.4"/>
  <ellipse cx="60" cy="240" rx="80" ry="60" fill="#7a5c38" opacity="0.4"/>
  <!-- Detailed brushstroke marks -->
  <path d="M40 60 Q80 40 120 60 Q110 80 70 75 Z" fill="#b07848" opacity="0.5"/>
  <path d="M280 40 Q330 30 370 50 Q360 70 310 68 Z" fill="#9a6840" opacity="0.4"/>
  <path d="M30 180 Q70 160 110 178 Q100 200 55 195 Z" fill="#6a4828" opacity="0.5"/>
  <!-- Central paint loss – raw canvas showing -->
  <ellipse cx="200" cy="148" rx="52" ry="44" fill="url(#void1)" stroke="#c0aa90" stroke-width="1.5"/>
  <ellipse cx="200" cy="148" rx="36" ry="29" fill="#d8ccb8"/>
  <ellipse cx="196" cy="144" rx="20" ry="16" fill="#e0d5c5" opacity="0.8"/>
  <!-- Damage edge detail -->
  <path d="M152 136 Q164 120 178 128 Q172 148 158 144 Z" fill="#c8b89a" opacity="0.6"/>
  <path d="M228 148 Q244 134 256 144 Q252 162 236 158 Z" fill="#c8b89a" opacity="0.5"/>
  <!-- Label -->
  <rect x="12" y="268" width="70" height="22" rx="4" fill="rgba(28,24,20,0.6)"/>
  <text x="47" y="283" text-anchor="middle" fill="white" font-size="11" font-weight="600" font-family="ui-sans-serif,system-ui,sans-serif">Before</text>
  <rect x="318" y="268" width="70" height="22" rx="4" fill="rgba(139,69,19,0.6)"/>
  <text x="353" y="283" text-anchor="middle" fill="white" font-size="9" font-weight="600" font-family="ui-sans-serif,system-ui,sans-serif">PAINT LOSS</text>
</svg>
